<svg xmlns="http://www.w3.org/2000/svg" height="800" width="1200" viewBox="-53.1498 -125.256 460.6316 751.536"><defs><clipPath id="a" clipPathUnits="userSpaceOnUse"><path d="M33 433.819h283.465V33H33z"/></clipPath></defs><path d="M0 501.024h354.332V0H0z" fill="#fff"/><path d="M156.02 198.31H0v73.56h156.02zM0 501.024h156.02v-63.047H0z" fill="#00a363"/><path d="M161.021 271.87H205.6V148.731H0v44.58h161.02zm-.001 229.154h44.578v-63.047h-44.577z" fill="#0994dc"/><path d="M210.599 271.87h44.577V99.154H0v44.577h210.599zm.001 229.154h44.577v-63.047h-44.578z" fill="#1c63b7"/><path d="M260.176 271.87h44.577l-.002-222.294H.001v44.578h260.175zm.001 229.154h44.577v-63.047h-44.577z" fill="#8d198f"/><path d="M0 0v44.576h309.752l.001 227.294h44.579V0zm309.754 501.024h44.578v-63.047h-44.578z" fill="#ec0677"/><path d="M0 416.928h354.332v-14.174H0z" fill="#151922"/><g clip-path="url(#a)" transform="matrix(1.25 0 0 -1.25 -41.25 542.274)"><path d="M86.898 174.618c-1.266-4.705-5.298-7.63-10.513-7.63H66.203l3.63 13.543h12.063c2.226 0 3.94-.57 4.71-1.567.935-1.222.584-3.246.292-4.346m14.367 15.08c-3.426 4.463-9.035 6.82-16.235 6.82H56.856l-7.924-29.576H33v-15.227h11.856l-7.484-27.933h17.246l7.423 27.681h6.961l6.426-27.68h18.945l-7.645 30.248c8.451 3.26 14.602 10.088 16.956 18.868 1.745 6.531.892 12.494-2.419 16.798m-2.088-65.915h17.25l19.49 72.736h-17.248zm190.831 15.991l15.209 56.746h-17.253l-19.484-72.736h47.985v15.99zm-54.37 12.527l10.777 17.882.859-17.881zm23.713 44.219H246.2l-46.168-72.737h19l8.058 13.195h20.689l.99-13.195h17.757zm-77.089 0h-40.34l-4.28-15.987h12.709l-15.21-56.75h17.262l15.204 56.75h10.37zm3.882 0l-4.283-15.987H193.5l-15.207-56.75h17.256l15.208 56.75h11.288l4.285 15.987z" fill="#151922"/></g></svg>